<svg xmlns="http://www.w3.org/2000/svg" xmlns:xlink="http://www.w3.org/1999/xlink" width="362.641" height="235.322" viewBox="0 0 362.641 235.322">
  <defs>
    <filter id="POST_IT_SALMAO" x="0" y="3.04" width="233.292" height="232.283" filterUnits="userSpaceOnUse">
      <feOffset dy="2" input="SourceAlpha"/>
      <feGaussianBlur stdDeviation="1" result="blur"/>
      <feFlood flood-opacity="0.239"/>
      <feComposite operator="in" in2="blur"/>
      <feComposite in="SourceGraphic"/>
    </filter>
    <filter id="POST_IT_BEGE" x="30.721" y="0" width="227.394" height="224.398" filterUnits="userSpaceOnUse">
      <feOffset dx="-1" dy="2" input="SourceAlpha"/>
      <feGaussianBlur stdDeviation="1" result="blur-2"/>
      <feFlood flood-opacity="0.239"/>
      <feComposite operator="in" in2="blur-2"/>
      <feComposite in="SourceGraphic"/>
    </filter>
    <filter id="POST_IT_VERDE" x="66.475" y="6.092" width="214.77" height="209.878" filterUnits="userSpaceOnUse">
      <feOffset dx="-2" dy="2" input="SourceAlpha"/>
      <feGaussianBlur stdDeviation="1" result="blur-3"/>
      <feFlood flood-opacity="0.239"/>
      <feComposite operator="in" in2="blur-3"/>
      <feComposite in="SourceGraphic"/>
    </filter>
    <filter id="POST_IT_AMARELO" x="105.412" y="19.408" width="195.803" height="189.163" filterUnits="userSpaceOnUse">
      <feOffset dx="-2" dy="2" input="SourceAlpha"/>
      <feGaussianBlur stdDeviation="1" result="blur-4"/>
      <feFlood flood-opacity="0.239"/>
      <feComposite operator="in" in2="blur-4"/>
      <feComposite in="SourceGraphic"/>
    </filter>
    <filter id="POST_IT_AZUL" x="149.385" y="39.828" width="171.068" height="162.883" filterUnits="userSpaceOnUse">
      <feOffset dx="-2" dy="2" input="SourceAlpha"/>
      <feGaussianBlur stdDeviation="1" result="blur-5"/>
      <feFlood flood-opacity="0.239"/>
      <feComposite operator="in" in2="blur-5"/>
      <feComposite in="SourceGraphic"/>
    </filter>
    <filter id="POST_IT_ROXO" x="166.838" y="39.572" width="195.803" height="189.163" filterUnits="userSpaceOnUse">
      <feOffset dx="-3" dy="2" input="SourceAlpha"/>
      <feGaussianBlur stdDeviation="1" result="blur-6"/>
      <feFlood flood-opacity="0.239"/>
      <feComposite operator="in" in2="blur-6"/>
      <feComposite in="SourceGraphic"/>
    </filter>
  </defs>
  <g id="Componente_17_2" data-name="Componente 17 – 2" transform="translate(3 1)">
    <g transform="matrix(1, 0, 0, 1, -3, -1)" filter="url(#POST_IT_SALMAO)">
      <rect id="POST_IT_SALMAO-2" data-name="POST IT SALMAO" width="165.068" height="156.883" transform="translate(3 110.14) rotate(-40)" fill="#f77d60"/>
    </g>
    <g transform="matrix(1, 0, 0, 1, -3, -1)" filter="url(#POST_IT_BEGE)">
      <rect id="POST_IT_BEGE-2" data-name="POST IT BEGE" width="165.068" height="156.883" transform="translate(34.72 83.53) rotate(-30)" fill="#feb196"/>
    </g>
    <g transform="matrix(1, 0, 0, 1, -3, -1)" filter="url(#POST_IT_VERDE)">
      <rect id="POST_IT_VERDE-2" data-name="POST IT VERDE" width="165.068" height="156.883" transform="translate(71.48 63.55) rotate(-20)" fill="#d7df6b"/>
    </g>
    <g transform="matrix(1, 0, 0, 1, -3, -1)" filter="url(#POST_IT_AMARELO)">
      <rect id="POST_IT_AMARELO-2" data-name="POST IT AMARELO" width="165.068" height="156.883" transform="matrix(0.98, -0.17, 0.17, 0.98, 110.41, 49.07)" fill="#fef496"/>
    </g>
    <g transform="matrix(1, 0, 0, 1, -3, -1)" filter="url(#POST_IT_AZUL)">
      <rect id="POST_IT_AZUL-2" data-name="POST IT AZUL" width="165.068" height="156.883" transform="translate(154.39 40.83)" fill="#a2c8e8"/>
    </g>
    <g transform="matrix(1, 0, 0, 1, -3, -1)" filter="url(#POST_IT_ROXO)">
      <rect id="POST_IT_ROXO-2" data-name="POST IT ROXO" width="165.068" height="156.883" transform="matrix(0.98, 0.17, -0.17, 0.98, 200.08, 40.57)" fill="#c390bc"/>
    </g>
  </g>
</svg>
